<?xml version="1.0" encoding="utf-8"?>
<!-- Generator: Adobe Illustrator 23.0.0, SVG Export Plug-In . SVG Version: 6.00 Build 0)  -->
<svg version="1.1" id="Layer_1" xmlns="http://www.w3.org/2000/svg" xmlns:xlink="http://www.w3.org/1999/xlink" x="0px" y="0px"
	 viewBox="0 0 51 36" style="enable-background:new 0 0 51 36;" xml:space="preserve">
<style type="text/css">
	.st0{fill:#1A1A1A;}
	.st1{enable-background:new    ;}
</style>
<g id="Group_15414" transform="translate(-152 -35.012)">
	<polygon class="st0" points="180.9,54.2 171.4,44.6 180.9,35 183,37.1 175.6,44.6 183,52.1 	"/>
	<g class="st1">
		<path class="st0" d="M152.6,62.8c0-2.6,1.6-4.3,4-4.3c2.5,0,4.1,1.7,4.1,4.3v1.1c0,1.4-0.5,2.5-1.3,3.3l1.2,1.7h-1.9l-0.6-1
			c-0.4,0.1-0.9,0.2-1.4,0.2c-2.5,0-4-1.6-4-4.3V62.8z M154.5,63.9c0,1.8,0.9,2.7,2.1,2.7c0.2,0,0.4,0,0.5-0.1l-1-1.4h1.8l0.4,0.5
			c0.3-0.4,0.4-1,0.4-1.7v-1.2c0-1.8-0.9-2.6-2.1-2.6c-1.2,0-2.1,0.9-2.1,2.6V63.9z"/>
		<path class="st0" d="M168.8,68h-1.9v-1.1h-0.1c-0.2,0.6-0.9,1.2-2.1,1.2c-1.5,0-2.5-0.9-2.5-2.6v-4.8h1.9V65
			c0,1.2,0.7,1.5,1.3,1.5c0.8,0,1.4-0.5,1.4-1.5v-4.3h1.9V68z"/>
		<path class="st0" d="M172.6,68.1c-1.4,0-2.4-0.8-2.4-2.2c0-1.3,0.9-2.2,2.6-2.2h1.8V63c0-0.7-0.4-1-1.1-1c-0.7,0-1.1,0.4-1.1,0.9
			h-1.8c0-1.2,0.8-2.4,3-2.4c1.7,0,3,0.7,3,2.5V68h-1.8v-0.9h-0.1C174.2,67.6,173.6,68.1,172.6,68.1z M174.5,65.6v-0.7h-1.3
			c-0.8,0-1.1,0.4-1.1,0.9c0,0.6,0.5,1,1.1,1C173.9,66.7,174.5,66.2,174.5,65.6z"/>
		<path class="st0" d="M182.2,67.7l-0.2,0.5c-0.5,1.3-1.2,2.3-3.1,2.3c-0.4,0-0.8,0-1-0.1v-1.4c0.1,0,0.4,0,0.6,0
			c0.9,0,1.2-0.3,1.3-0.9l0.1-0.2l-2.5-7.3h2.1l1.5,5.6h0.1l1.5-5.6h2C184.5,60.7,182.2,67.7,182.2,67.7z"/>
		<path class="st0" d="M188.4,58.2h1.9V68h-1.9V58.2z"/>
		<path class="st0" d="M194.1,68.1c-1.4,0-2.4-0.8-2.4-2.2c0-1.3,0.9-2.2,2.6-2.2h1.8V63c0-0.7-0.4-1-1.1-1c-0.7,0-1.1,0.4-1.1,0.9
			H192c0-1.2,0.8-2.4,3-2.4c1.7,0,3,0.7,3,2.5V68h-1.8v-0.9h-0.1C195.8,67.6,195.2,68.1,194.1,68.1z M196,65.6v-0.7h-1.3
			c-0.8,0-1.1,0.4-1.1,0.9c0,0.6,0.5,1,1.1,1C195.5,66.7,196,66.2,196,65.6z M195,68.9c0.5,0,0.9,0.4,0.9,0.9c0,0.5-0.4,0.9-0.9,0.9
			c-0.5,0-0.9-0.4-0.9-0.9C194.1,69.3,194.5,68.9,195,68.9z"/>
		<path class="st0" d="M200.7,58c0.7,0,1.1,0.4,1.1,0.9c0,0.6-0.4,1-1.1,1c-0.7,0-1.1-0.4-1.1-1C199.6,58.3,200,58,200.7,58z
			 M199.7,60.7h1.9V68h-1.9V60.7z"/>
	</g>
</g>
</svg>
