<svg xmlns="http://www.w3.org/2000/svg" width="17.655" height="15.757" viewBox="0 0 17.655 15.757">
  <path id="Path_44023" data-name="Path 44023" d="M19.679,61.587,12.088,54.4a.7.7,0,0,0-1.174.5v3.828a9.483,9.483,0,0,0-6.45,2.649C2.78,63.155,2.046,65.7,2.284,68.946a.69.69,0,0,0,.413.583.7.7,0,0,0,.711-.09c.25-.2.516-.414.795-.642,1.775-1.451,4.159-3.411,6.711-3.16v3.637a.691.691,0,0,0,.42.636.715.715,0,0,0,.275.057.694.694,0,0,0,.479-.191l7.591-7.186a.69.69,0,0,0,0-1Z" transform="translate(-2.24 -54.211)"/>
</svg>
